<svg xmlns="http://www.w3.org/2000/svg" viewBox="0 0 121.79 88.46"><defs><style>.cls-1{fill:#fff;}.cls-2{fill:#f2be37;}.cls-3{fill:#f26522;}.cls-4{fill:#231f20;}.cls-5{fill:#ed145b;}</style></defs><g id="Layer_2" data-name="Layer 2"><g id="Layer_1-2" data-name="Layer 1"><path class="cls-1" d="M120.79,56.28a4.26,4.26,0,0,0-3.25-1.52h-4.82l3-16.89a4.3,4.3,0,0,0-.93-3.47,4.23,4.23,0,0,0-3.26-1.52h-1.6a4.22,4.22,0,0,0-3.51,1.87,9.31,9.31,0,0,0-6.48-2.19A10.83,10.83,0,0,0,93,34.78a4.22,4.22,0,0,0-2.22-1.47,21.68,21.68,0,0,0-5.6-.75q-.52,0-1,0C91.69,29.46,96.79,24.65,97.8,19A11.74,11.74,0,0,0,95,9.19C90.16,3.44,79.84,0,67.37,0c-13.49,0-25,3.83-31,9.78a4.29,4.29,0,0,0-3.37,0,28.78,28.78,0,0,0-9,5.7,4.25,4.25,0,0,0-1.72-.37,4.13,4.13,0,0,0-1.65.34C13,18.64,8.3,23.41,7.35,28.84L.18,69.48A11.74,11.74,0,0,0,3,79.27C7.81,85,18.14,88.46,30.6,88.46a60.85,60.85,0,0,0,18.21-2.68,4.22,4.22,0,0,0,2.92-3.59,55.87,55.87,0,0,0,9.42-2.08,4.23,4.23,0,0,0,2.92-3.59c9.37-1.27,17.47-4.53,22.19-9.14a4.25,4.25,0,0,0,1-4.66,12.8,12.8,0,0,0,1.06-.89,3.15,3.15,0,0,0,.22.29c1.63,1.95,4,2.94,7.19,2.94l.47,0a4.25,4.25,0,0,0,4.25,4.46H102A4.25,4.25,0,0,0,106.19,66a9.45,9.45,0,0,0,.14-1.28h11a4.26,4.26,0,0,0,4.19-3.52l.25-1.47A4.23,4.23,0,0,0,120.79,56.28Z"/><path class="cls-2" d="M42.34,81.94a53.76,53.76,0,0,1-14.5-1.84C15.31,79.34,7.6,74.55,8.37,70.22l7.16-40.64c.31-1.76,2-3.6,4.86-5.21l.08-.46a12.33,12.33,0,0,1,1.84-4.57c-6,2.53-10.06,6.15-10.78,10.24L4.37,70.22C3,78.06,14.51,84.2,30.6,84.2a56.64,56.64,0,0,0,16.92-2.47C45.83,81.87,44.1,81.94,42.34,81.94Z"/><path class="cls-3" d="M54.68,76.27a53.76,53.76,0,0,1-14.5-1.84c-12.53-.76-20.24-5.55-19.47-9.88l7.16-40.64c.31-1.76,2.05-3.6,4.86-5.21l.08-.46a12.33,12.33,0,0,1,1.84-4.57c-6,2.53-10.06,6.15-10.78,10.24L16.71,64.55c-1.39,7.84,10.14,14,26.23,14a56.64,56.64,0,0,0,16.92-2.47C58.17,76.2,56.44,76.27,54.68,76.27Z"/><path class="cls-4" d="M46.55,37.13H51l-1.6,9h4.48l1.6-9H60L55.87,60.49H51.39l1.82-10.37H48.74L46.91,60.49H42.43Z"/><path class="cls-4" d="M66.62,37.13h5.12L72.9,60.49H68.36l0-5h-4.8l-1.77,5H57.22Zm1.69,14.56,0-9.12h-.12l-3.24,9.12Z"/><path class="cls-4" d="M74.94,59.94l.27-1.53a11.11,11.11,0,0,0,4.41.93c3.33,0,5.52-1.51,6-4.49s-1.12-4.19-3.9-5.82c-3.06-1.89-4.83-3.45-4.24-6.78.63-3.62,3.19-5.44,7.64-5.44a17.24,17.24,0,0,1,4.5.61L88.5,44H86.93l1-5.41a14.72,14.72,0,0,0-3-.32c-3.33,0-5.26,1.34-5.72,4s1,3.9,3.76,5.53c3.13,1.86,5,3.52,4.38,7.11-.68,3.8-3.45,5.92-7.8,5.92A12.27,12.27,0,0,1,74.94,59.94Z"/><path class="cls-4" d="M95.69,60.81c-4.73,0-5.94-3-4.51-11l.33-1.92c1.43-8.1,3.68-11,8.41-11s6,2.94,4.52,11l-.34,1.92c-1.06,6-2.51,9-5.06,10.2l0,.13a4.27,4.27,0,0,1,3,5.19h-1.6C100.91,62.41,99.18,60.81,95.69,60.81Zm6.82-11.11.32-1.79c1.29-7.33.48-9.63-3.17-9.63s-5.27,2.3-6.56,9.63l-.31,1.79C91.49,57,92.3,59.34,96,59.34S101.22,57,102.51,49.7Z"/><path class="cls-4" d="M109.91,37.13h1.6L107.65,59h9.89l-.26,1.48H105.79Z"/><path class="cls-5" d="M76.17,64.83c-4.78,2.34-11.92,4-20.19,4-14.55,0-23.77-5.27-22.94-10l7.17-40.64c.83-4.72,11.9-10,26.46-10s23.77,5.27,22.94,10-11.91,10-26.46,10a47.1,47.1,0,0,1-14.09-2c-2.18.73-4.45,1.33-6.49,1.83a1.72,1.72,0,0,0,.34.24c4.91,2.53,11.84,3.93,19.53,3.93,16.09,0,29.78-6.15,31.17-14s-10.14-14-26.24-14-29.78,6.15-31.16,14L29,58.88c-1.38,7.84,10.14,14,26.24,14,12.1,0,22.84-3.48,28-8.54a14,14,0,0,1-4.55.73A14.62,14.62,0,0,1,76.17,64.83Z"/></g></g></svg>